<svg width="16" height="11" viewBox="0 0 4.233 2.91" xmlns="http://www.w3.org/2000/svg" xmlns:xlink="http://www.w3.org/1999/xlink"><defs><linearGradient id="centre" x1="-4.583" x2="4.583" y1="-3.928" y2="5.237" gradientTransform="scale(1.3093 .76376)" gradientUnits="userSpaceOnUse"><stop stop-color="#fff" offset="0"/><stop stop-color="#e8e8e8" offset="1"/></linearGradient><linearGradient id="pic" x1="-6" x2="0" y1="-3" y2="3" gradientUnits="userSpaceOnUse"><stop stop-color="#8eccfc" offset="0"/><stop stop-color="#89c8fa" offset="1"/></linearGradient><linearGradient id="details" x1="1" x2="3" y1="-6" y2="-4" gradientTransform="scale(2 .5)" gradientUnits="userSpaceOnUse"><stop stop-color="#74b6ec" offset="0"/><stop stop-color="#569ddb" offset="1"/></linearGradient><linearGradient id="user-backing" x1="-5.097" x2="4.21" y1="-3.667" y2="5.641" gradientTransform="scale(1.1282 .88641)" gradientUnits="userSpaceOnUse"><stop stop-color="#1c48bc" offset="0"/><stop stop-color="#1f3d9f" offset="1"/></linearGradient><linearGradient id="user-in-border" x1="-3.897" x2="-3.897" y1="-2.309" y2="4.619" gradientTransform="scale(1.1547 .86603)" gradientUnits="userSpaceOnUse"><stop stop-color="#fff" offset="0"/><stop stop-color="#d6e4f6" offset=".5"/><stop stop-color="#61b9fe" offset="1"/></linearGradient><linearGradient id="user-centre" x1="-2.762" x2="1.912" y1="-.883" y2="3.792" gradientTransform="scale(1.1767 .84984)" gradientUnits="userSpaceOnUse"><stop stop-color="#6dc7fe" offset="0"/><stop stop-color="#64b9fe" offset=".5"/><stop stop-color="#438dff" offset="1"/></linearGradient><linearGradient id="user-head" x1="-4" x2="3" y1="-6" y2="1" gradientUnits="userSpaceOnUse"><stop stop-color="#9b5e1f" offset="0"/><stop stop-color="#94591c" offset=".5"/><stop stop-color="#ae7434" offset="1"/></linearGradient><linearGradient id="user-head-in" x1="-3" x2="2" y1="-5" gradientUnits="userSpaceOnUse"><stop stop-color="#e4b78a" offset="0"/><stop stop-color="#e5bb8e" offset=".5"/><stop stop-color="#f6cfa5" offset="1"/></linearGradient><linearGradient id="user-hair" x1="-2.828" x2="2.121" y1="-8.485" y2="-3.535" gradientTransform="scale(1.4142 .70711)" gradientUnits="userSpaceOnUse"><stop stop-color="#9b5812" offset="0"/><stop stop-color="#5c330f" offset="1"/></linearGradient><linearGradient id="linearGradient802" x1="3.182" x2="5.303" y1="1.886" y2="4.007" gradientTransform="scale(.94281 1.0607)" gradientUnits="userSpaceOnUse"><stop stop-color="#c77429" offset="0"/><stop stop-color="#ce7e2e" offset="1"/></linearGradient><linearGradient id="linearGradient804" x1="3" x2="4" y1="2" y2="3" gradientUnits="userSpaceOnUse"><stop stop-color="#edb87e" offset="0"/><stop stop-color="#efbc83" offset="1"/></linearGradient></defs><g transform="translate(-15.27 -17.354)"><g id="icon"><path d="M-7-5H7a1 1 0 011 1v9a1 1 0 01-1 1H5V5H4v1h-8V5h-1v1h-2a1 1 0 01-1-1v-9a1 1 0 011-1z" opacity=".21" transform="translate(17.387 18.677) scale(.26458)"/><path d="M-7-4H7v9H6a1 1 0 00-1-1H4a1 1 0 00-1 1h-6a1 1 0 00-1-1h-1a1 1 0 00-1 1h-1" fill="#fff" transform="translate(17.387 18.677) scale(.26458)"/><path d="M-6-3H6v6H3a1 1 0 00-1 1h-4a1 1 0 01-1-1h-3" fill="url(#centre)" transform="translate(17.387 18.677) scale(.26458)"/><path fill="url(#pic)" d="M-6-3h6v6h-6z" transform="translate(17.387 18.677) scale(.26458)"/><path fill="url(#details)" d="M2-3h4v1H2z" transform="translate(17.387 18.677) scale(.26458)"/><path fill="#b7b7b7" d="M2-1h4v1H2zm0 2h4v1H2z" transform="translate(17.387 18.677) scale(.26458)"/></g><g id="user" transform="translate(16.593 18.677) scale(.13229)"><path d="M-5.75 2a5.25 3 0 0010.5 0L-.5-3.25-5.75 2" fill="url(#user-backing)"/><path d="M-4.5 2a4 2 0 008 0l-4-4-4 4" fill="url(#user-in-border)"/><path d="M-3.25 2a2.75 1.222 0 005.5 0L-.5-.75-3.25 2" fill="url(#user-centre)"/><circle cx="-.5" cy="-2.5" r="3.5" fill="url(#user-head)"/><circle cx="-.5" cy="-2.5" r="2.5" fill="url(#user-head-in)"/><path d="M-4-2.5a3.5 3.5 0 017 0c-1.75 0-3.5 0-3.5-.875s-3.5 0-3.5.875" fill="url(#user-hair)"/><g id="user-hand"><path d="M3.5 2H5v1.25a1 1 0 01-1 1h-.5a.5.5 0 01-.5-.5V2.5a.5.5 0 01.5-.5" fill="url(#linearGradient802)"/><rect x="3" y="2" width="1" height="1" rx=".25" ry=".25" fill="url(#linearGradient804)"/></g><use transform="matrix(-1 0 0 1 -1 0)" width="100%" height="100%" xlink:href="#user-hand"/></g></g></svg>